<svg xmlns="http://www.w3.org/2000/svg" xmlns:xlink="http://www.w3.org/1999/xlink" version="1.1" width="1000" height="1000" viewBox="0 0 1000 1000" xml:space="preserve">
<desc>Created with Fabric.js 3.5.0</desc>
<defs>
</defs>
<g transform="matrix(-1.0074 0 0 1.0074 454.5482 538.5931)" id="336187">
<g style="" vector-effect="non-scaling-stroke">
		<g transform="matrix(1 0 0 1 239.6731 298.0474)">
<path style="stroke: none; stroke-width: 1; stroke-dasharray: none; stroke-linecap: butt; stroke-dashoffset: 0; stroke-linejoin: miter; stroke-miterlimit: 4; is-custom-font: none; font-file-url: none; fill: rgb(230,230,230); fill-rule: nonzero; opacity: 1;" transform=" translate(-839.673, -748.0475)" d="M 726.94952 696.70767 l 8.67165 19.44392 c -7.04887 -1.12221 -13.60391 4.89778 -13.75121 12.62878 s 6.13979 15.77421 13.18911 16.8731 c -1.34708 6.00231 -7.16088 8.64855 -12.20732 11.07451 s -10.48544 6.44956 -10.11 12.84517 c 0.30146 5.13535 4.548 9.66922 9.05769 11.49215 s 9.24135 1.54272 13.80858 1.23684 c -6.921 7.23984 -7.59561 20.84776 -1.51747 30.61081 s 18.21665 14.56912 27.30539 10.8112 c -6.42186 7.98853 -5.02668 22.61792 2.94328 30.86218 c 8.03432 8.31083 19.678 9.11525 29.85706 8.23972 a 132.23791 132.23791 0 0 0 71.00684 -28.14 c 7.78173 -6.1834 15.05042 -13.45556 19.48953 -22.94127 s 5.747 -21.49572 1.61222 -32.29045 c 1.1152 13.52239 14.64995 24.20276 26.82589 24.80038 s 22.80664 -6.26052 31.84054 -14.08111 c 12.014 -10.40049 23.13736 -24.9791 21.48841 -42.967 c -0.81631 -8.90487 -4.70578 -17.46936 -8.52054 -25.765 l -7.39565 -16.08273 c -2.98571 -6.49278 -6.03914 -13.09517 -10.53293 -18.54375 s -10.73125 -9.66651 -16.97307 -9.62643 c 1.42718 -6.5202 2.86077 -13.28339 1.66478 -20.211 s -5.77577 -14.10054 -12.00424 -15.72285 c -7.92682 -2.06468 -14.6448 5.25038 -22.6158 4.56081 c -7.67069 -0.6636 -14.01 -8.362 -21.45871 -11.4124 a 17.17785 17.17785 0 0 0 -18.53718 3.20639 c -4.722 4.6097 -6.69032 12.39794 -4.99586 19.76719 c 1.48435 6.45545 5.43465 12.14909 7.83232 18.37489 s 2.76983 14.231 -1.8351 17.63129 c -5.55664 4.103 -14.01442 -1.48021 -18.35566 -8.23484 s -6.83379 -14.93336 -12.32361 -20.614 c -6.47924 -6.70451 -16.62148 -8.27573 -23.29257 -3.60845 s -9.22234 15.11922 -5.85919 24.00383 c 2.74987 7.26449 9.04909 14.6135 6.86437 21.45428 c -2.309 7.2298 -12.41262 6.31432 -18.50707 1.20471 s -10.14111 -12.8059 -16.16143 -18.03027 c -6.114 -5.30562 -14.09812 -7.63035 -21.10721 -6.14573 a 21.73057 21.73057 0 0 0 -15.57311 13.9151" stroke-linecap="round"/>
</g>
		<g transform="matrix(1 0 0 1 253.1006 181.5307)">
<path style="stroke: none; stroke-width: 1; stroke-dasharray: none; stroke-linecap: butt; stroke-dashoffset: 0; stroke-linejoin: miter; stroke-miterlimit: 4; is-custom-font: none; font-file-url: none; fill: rgb(63,61,86); fill-rule: nonzero; opacity: 1;" transform=" translate(-853.1006, -631.5307)" d="M 867.34667 642.06633 l -17.99256 8.35958 a 13.81228 13.81228 0 0 1 -8.73392 1.17747 c -2.61209 -0.61776 -4.37716 -2.21477 -4.84109 -4.3833 l -4.18659 -19.55422 c -0.7905 -3.68869 2.26453 -8.05314 7.26376 -10.37585 l 9.93652 -4.61663 c 4.99924 -2.32271 10.305 -1.8428 12.61429 1.14024 l 12.24431 15.81049 c 1.35812 1.75309 1.4403 4.132 0.22783 6.52669 A 13.81219 13.81219 0 0 1 867.34667 642.06633 Z" stroke-linecap="round"/>
</g>
		<g transform="matrix(1 0 0 1 69.3163 -59.3084)">
<path style="stroke: none; stroke-width: 1; stroke-dasharray: none; stroke-linecap: butt; stroke-dashoffset: 0; stroke-linejoin: miter; stroke-miterlimit: 4; is-custom-font: none; font-file-url: none; fill: rgb(108,99,255); fill-rule: nonzero; opacity: 1;" transform=" translate(-669.3163, -390.6916)" d="M 309.43024 280.65881 A 353.9984 353.9984 0 0 1 386.93192 156.602 c 29.00636 -30.1117 74.15027 -28.86051 74.15027 -28.86051 l 0.25785 -0.32 A 87.58018 87.58018 0 0 1 553.89276 98.509 c 4.30426 1.23514 7.615 1.78263 9.18943 1.23249 c 28.70712 -10.04708 27.35834 -32.72422 52.12616 -50.99278 c 43.367 -31.98718 187.21094 4.6535 207.4942 63.51371 c 16.43915 47.70488 89.82021 70.827 117.23582 107.31737 q 6.43059 8.55861 12.618 17.31558 q 2.90129 4.06824 5.73748 8.19783 a 730.4283 730.4283 0 0 1 52.14714 88.15542 a 514.11313 514.11313 0 0 1 26.10088 61.68445 c 28.591 83.58209 18.8138 145.8549 -60.021 130.47014 q -13.99815 -2.739 -27.32378 -4.90113 q -19.2962 -3.14892 -37.24641 -5.17566 q -24.17227 -2.74893 -45.99366 -3.60217 q -7.33723 -0.29524 -14.40509 -0.39579 c -69.67037 -0.966 -121.34893 12.1465 -160.719 32.50168 q -10.01082 5.16279 -18.97332 10.92332 a 236.05444 236.05444 0 0 0 -26.08005 19.31927 a 254.89837 254.89837 0 0 0 -31.42249 32.19714 l -0.52216 0.6393 c -46.04826 56.326 -61.203 118.68168 -93.23451 129.6607 C 383.67414 783.51013 297.07405 613.35008 288.193 446.896 q -0.67263 -12.58159 -0.74315 -25.09128 q -0.04163 -5.59155 0.055 -11.15359 c 0.14052 -9.67346 0.567 -19.28471 1.28114 -28.7797 q 0.40006 -5.44542 0.92807 -10.83322 c 0.3879 -3.87342 0.80989 -7.72368 1.2976 -11.54982 C 294.49493 331.442 300.58862 304.75806 309.43024 280.65881 Z" stroke-linecap="round"/>
</g>
		<g transform="matrix(1 0 0 1 148.0748 -53.9558)">
<path style="stroke: none; stroke-width: 1; stroke-dasharray: none; stroke-linecap: butt; stroke-dashoffset: 0; stroke-linejoin: miter; stroke-miterlimit: 4; is-custom-font: none; font-file-url: none; fill: rgb(63,61,86); fill-rule: nonzero; opacity: 1;" transform=" translate(-748.0748, -396.0442)" d="M 733.83354 372.24025 c -10.93522 5.09113 -11.11539 27.895 -7.68649 35.28386 l 6.21383 13.37421 l 39.60938 -18.403 l -6.21383 -13.37421 C 762.32083 381.73531 744.77678 367.16636 733.83354 372.24025 Z" stroke-linecap="round"/>
</g>
		<g transform="matrix(1 0 0 1 129.6671 62.4055)">
<path style="stroke: none; stroke-width: 1; stroke-dasharray: none; stroke-linecap: butt; stroke-dashoffset: 0; stroke-linejoin: miter; stroke-miterlimit: 4; is-custom-font: none; font-file-url: none; fill: rgb(63,61,86); fill-rule: nonzero; opacity: 1;" transform=" translate(-729.6671, -512.4055)" d="M 627.39274 564.25616 a 4.33285 4.33285 0 0 1 -4.06983 -5.81934 a 4.29966 4.29966 0 0 1 2.24317 -2.44043 L 830.11979 460.9583 a 4.33007 4.33007 0 0 1 5.752 2.10157 a 4.33573 4.33573 0 0 1 -2.10254 5.752 h -0.00049 L 629.215 563.84991 A 4.30619 4.30619 0 0 1 627.39274 564.25616 Z" stroke-linecap="round"/>
</g>
		<g transform="matrix(0.9069 -0.4214 0.4214 0.9069 204.0247 73.3145)">
<rect style="stroke: none; stroke-width: 1; stroke-dasharray: none; stroke-linecap: butt; stroke-dashoffset: 0; stroke-linejoin: miter; stroke-miterlimit: 4; is-custom-font: none; font-file-url: none; fill: rgb(230,230,230); fill-rule: nonzero; opacity: 1;" x="-32.2369" y="-108.8402" rx="0" ry="0" width="64.4738" height="217.6804"/>
</g>
		<g transform="matrix(1 0 0 1 -17.8542 -263.6819)">
<path style="stroke: none; stroke-width: 1; stroke-dasharray: none; stroke-linecap: butt; stroke-dashoffset: 0; stroke-linejoin: miter; stroke-miterlimit: 4; is-custom-font: none; font-file-url: none; fill: rgb(63,61,86); fill-rule: nonzero; opacity: 1;" transform=" translate(-582.1458, -186.3181)" d="M 567.90452 162.51413 c -10.93522 5.09113 -11.11539 27.895 -7.68649 35.28386 l 6.21383 13.37421 l 39.60938 -18.403 L 599.82741 179.395 C 596.39181 172.00919 578.84776 157.44024 567.90452 162.51413 Z" stroke-linecap="round"/>
</g>
		<g transform="matrix(1 0 0 1 198.6732 204.2251)">
<path style="stroke: none; stroke-width: 1; stroke-dasharray: none; stroke-linecap: butt; stroke-dashoffset: 0; stroke-linejoin: miter; stroke-miterlimit: 4; is-custom-font: none; font-file-url: none; fill: rgb(63,61,86); fill-rule: nonzero; opacity: 1;" transform=" translate(-798.6733, -654.2251)" d="M 812.91932 664.76078 l -17.99256 8.35958 a 13.81216 13.81216 0 0 1 -8.73392 1.17747 c -2.6121 -0.61775 -4.37717 -2.21476 -4.84109 -4.3833 l -4.1866 -19.55421 c -0.79049 -3.68869 2.26453 -8.05314 7.26377 -10.37585 l 9.93651 -4.61664 c 4.99924 -2.32271 10.305 -1.8428 12.6143 1.14025 L 819.224 652.31857 c 1.35811 1.75309 1.4403 4.132 0.22783 6.52668 A 13.81219 13.81219 0 0 1 812.91932 664.76078 Z" stroke-linecap="round"/>
</g>
		<g transform="matrix(1 0 0 1 143.3545 231.6709)">
<path style="stroke: none; stroke-width: 1; stroke-dasharray: none; stroke-linecap: butt; stroke-dashoffset: 0; stroke-linejoin: miter; stroke-miterlimit: 4; is-custom-font: none; font-file-url: none; fill: rgb(63,61,86); fill-rule: nonzero; opacity: 1;" transform=" translate(-743.3545, -681.6709)" d="M 757.60057 692.20652 L 739.608 700.5661 a 13.81222 13.81222 0 0 1 -8.73392 1.17747 c -2.6121 -0.61776 -4.37716 -2.21476 -4.84109 -4.3833 l -4.18659 -19.55422 c -0.7905 -3.68869 2.26452 -8.05313 7.26376 -10.37584 l 9.93652 -4.61664 c 4.99923 -2.32271 10.305 -1.8428 12.61429 1.14024 l 12.24431 15.8105 c 1.35811 1.75308 1.4403 4.132 0.22783 6.52668 A 13.81219 13.81219 0 0 1 757.60057 692.20652 Z" stroke-linecap="round"/>
</g>
		<g transform="matrix(0.9069 -0.4214 0.4214 0.9069 100.5386 -2.0138)">
<rect style="stroke: none; stroke-width: 1; stroke-dasharray: none; stroke-linecap: butt; stroke-dashoffset: 0; stroke-linejoin: miter; stroke-miterlimit: 4; is-custom-font: none; font-file-url: none; fill: rgb(230,230,230); fill-rule: nonzero; opacity: 1;" x="-32.2369" y="-220.0079" rx="0" ry="0" width="64.4738" height="440.0158"/>
</g>
		<g transform="matrix(1 0 0 1 143.6972 87.4836)">
<polyline style="stroke: none; stroke-width: 1; stroke-dasharray: none; stroke-linecap: butt; stroke-dashoffset: 0; stroke-linejoin: miter; stroke-miterlimit: 4; is-custom-font: none; font-file-url: none; fill: rgb(63,61,86); fill-rule: nonzero; opacity: 1;" points="-45.9555,-96.896 -52.5165,-111.333 -48.7395,-113.075 -42.1985,-98.684 52.5165,111.322 48.7435,113.075 "/>
</g>
		<g transform="matrix(1 0 0 1 217.6972 75.4836)">
<polyline style="stroke: none; stroke-width: 1; stroke-dasharray: none; stroke-linecap: butt; stroke-dashoffset: 0; stroke-linejoin: miter; stroke-miterlimit: 4; is-custom-font: none; font-file-url: none; fill: rgb(63,61,86); fill-rule: nonzero; opacity: 1;" points="-45.9555,-96.896 -52.5165,-111.333 -48.7395,-113.075 -42.1985,-98.684 52.5165,111.322 48.7435,113.075 "/>
</g>
		<g transform="matrix(1 0 0 1 15.3592 -194.7694)">
<path style="stroke: none; stroke-width: 1; stroke-dasharray: none; stroke-linecap: butt; stroke-dashoffset: 0; stroke-linejoin: miter; stroke-miterlimit: 4; is-custom-font: none; font-file-url: none; fill: rgb(230,230,230); fill-rule: nonzero; opacity: 1;" transform=" translate(-615.3591, -255.2307)" d="M 664.67094 266.81383 l -79.22567 36.80928 c -5.044 -7.84723 -20.24939 -48.06017 -16.83519 -59.99122 l -2.56272 -11.37766 l 54.70348 -25.416 l 7.32219 9.00725 C 638.94215 219.18044 660.10154 256.95133 664.67094 266.81383 Z" stroke-linecap="round"/>
</g>
		<g transform="matrix(1 0 0 1 -7.8328 -243.2755)">
<path style="stroke: none; stroke-width: 1; stroke-dasharray: none; stroke-linecap: butt; stroke-dashoffset: 0; stroke-linejoin: miter; stroke-miterlimit: 4; is-custom-font: none; font-file-url: none; fill: rgb(230,230,230); fill-rule: nonzero; opacity: 1;" transform=" translate(-592.1672, -206.7245)" d="M 623.03676 207.325 l -56.45093 26.22784 c -2.08362 0.968 -4.30262 0.61217 -4.95626 -0.79495 a 1.95213 1.95213 0 0 1 -0.17209 -0.6429 l -2.92164 -31.16788 c -0.1251 -1.33466 1.01667 -2.84708 2.76109 -3.65756 L 598.73374 179.896 c 1.74442 -0.81048 3.63664 -0.70769 4.576 0.24866 l 21.93586 22.33363 c 1.12192 1.14229 0.51268 3.09757 -1.36081 4.36726 A 6.08075 6.08075 0 0 1 623.03676 207.325 Z" stroke-linecap="round"/>
</g>
		<g transform="matrix(1 0 0 1 76.4814 -53.7938)">
<path style="stroke: none; stroke-width: 1; stroke-dasharray: none; stroke-linecap: butt; stroke-dashoffset: 0; stroke-linejoin: miter; stroke-miterlimit: 4; is-custom-font: none; font-file-url: none; fill: rgb(63,61,86); fill-rule: nonzero; opacity: 1;" transform=" translate(-676.4815, -396.2063)" d="M 667.31315 451.514 a 7.62608 7.62608 0 0 1 -1.814 -0.21387 a 5.60386 5.60386 0 0 1 -3.89648 -3.02539 L 627.09 373.992 c -1.42822 -3.0752 0.48926 -7.00782 4.27442 -8.76661 l 50.53613 -23.48 c 3.78564 -1.75976 8.02734 -0.6875 9.45654 2.38721 l 34.5127 74.2832 a 5.60256 5.60256 0 0 1 -0.20069 4.92872 a 8.50632 8.50632 0 0 1 -4.07422 3.83789 l -50.53564 23.479 A 8.9197 8.9197 0 0 1 667.31315 451.514 Z" stroke-linecap="round"/>
</g>
		<g transform="matrix(0.9069 -0.4214 0.4214 0.9069 90.8492 125.0481)">
<rect style="stroke: none; stroke-width: 1; stroke-dasharray: none; stroke-linecap: butt; stroke-dashoffset: 0; stroke-linejoin: miter; stroke-miterlimit: 4; is-custom-font: none; font-file-url: none; fill: rgb(230,230,230); fill-rule: nonzero; opacity: 1;" x="-32.2369" y="-108.8402" rx="0" ry="0" width="64.4738" height="217.6804"/>
</g>
		<g transform="matrix(1 0 0 1 -10.3329 -243.9335)">
<path style="stroke: none; stroke-width: 1; stroke-dasharray: none; stroke-linecap: butt; stroke-dashoffset: 0; stroke-linejoin: miter; stroke-miterlimit: 4; is-custom-font: none; font-file-url: none; fill: rgb(63,61,86); fill-rule: nonzero; opacity: 1;" transform=" translate(-589.6671, -206.0665)" d="M 602.18887 210.58118 l -17.14693 7.9667 c -3.30882 1.53733 -7.77287 -1.02438 -9.94972 -5.70968 s -1.25568 -9.74905 2.05314 -11.28637 l 17.14693 -7.9667 c 3.30882 -1.53733 7.77287 1.02438 9.94972 5.70968 S 605.4977 209.04386 602.18887 210.58118 Z" stroke-linecap="round"/>
</g>
		<g transform="matrix(1 0 0 1 36.0405 -2.7524)">
<path style="stroke: none; stroke-width: 1; stroke-dasharray: none; stroke-linecap: butt; stroke-dashoffset: 0; stroke-linejoin: miter; stroke-miterlimit: 4; is-custom-font: none; font-file-url: none; fill: rgb(63,61,86); fill-rule: nonzero; opacity: 1;" transform=" translate(-636.0405, -447.2476)" d="M 621.79921 423.44358 c -10.93522 5.09113 -11.11539 27.895 -7.68649 35.28386 l 6.21383 13.37421 l 39.60938 -18.403 L 653.7221 440.3244 C 650.2865 432.93864 632.74245 418.36969 621.79921 423.44358 Z" stroke-linecap="round"/>
</g>
		<g transform="matrix(1 0 0 1 -161.7876 -75.0802)">
<path style="stroke: none; stroke-width: 1; stroke-dasharray: none; stroke-linecap: butt; stroke-dashoffset: 0; stroke-linejoin: miter; stroke-miterlimit: 4; is-custom-font: none; font-file-url: none; fill: rgb(230,230,230); fill-rule: nonzero; opacity: 1;" transform=" translate(-438.2124, -374.9198)" d="M 440.1517 377.92488 c -3.862 2.57319 -7.8147 -3.55124 -3.87848 -6.01018 C 440.135 369.34165 444.08773 375.46609 440.1517 377.92488 Z" stroke-linecap="round"/>
</g>
		<g transform="matrix(1 0 0 1 240.2124 -163.0802)">
<path style="stroke: none; stroke-width: 1; stroke-dasharray: none; stroke-linecap: butt; stroke-dashoffset: 0; stroke-linejoin: miter; stroke-miterlimit: 4; is-custom-font: none; font-file-url: none; fill: rgb(230,230,230); fill-rule: nonzero; opacity: 1;" transform=" translate(-840.2124, -286.9198)" d="M 842.1517 289.92488 c -3.862 2.57319 -7.8147 -3.55124 -3.87848 -6.01018 C 842.135 281.34165 846.08773 287.46609 842.1517 289.92488 Z" stroke-linecap="round"/>
</g>
		<g transform="matrix(1 0 0 1 -33.7876 -93.0802)">
<path style="stroke: none; stroke-width: 1; stroke-dasharray: none; stroke-linecap: butt; stroke-dashoffset: 0; stroke-linejoin: miter; stroke-miterlimit: 4; is-custom-font: none; font-file-url: none; fill: rgb(230,230,230); fill-rule: nonzero; opacity: 1;" transform=" translate(-566.2124, -356.9198)" d="M 568.1517 359.92488 c -3.862 2.57319 -7.8147 -3.55124 -3.87848 -6.01018 C 568.135 351.34165 572.08773 357.46609 568.1517 359.92488 Z" stroke-linecap="round"/>
</g>
		<g transform="matrix(1 0 0 1 -161.7876 146.9198)">
<path style="stroke: none; stroke-width: 1; stroke-dasharray: none; stroke-linecap: butt; stroke-dashoffset: 0; stroke-linejoin: miter; stroke-miterlimit: 4; is-custom-font: none; font-file-url: none; fill: rgb(230,230,230); fill-rule: nonzero; opacity: 1;" transform=" translate(-438.2124, -596.9198)" d="M 440.1517 599.92488 c -3.862 2.57319 -7.8147 -3.55124 -3.87848 -6.01018 C 440.135 591.34165 444.08773 597.46609 440.1517 599.92488 Z" stroke-linecap="round"/>
</g>
		<g transform="matrix(1 0 0 1 35.2124 -354.0802)">
<path style="stroke: none; stroke-width: 1; stroke-dasharray: none; stroke-linecap: butt; stroke-dashoffset: 0; stroke-linejoin: miter; stroke-miterlimit: 4; is-custom-font: none; font-file-url: none; fill: rgb(230,230,230); fill-rule: nonzero; opacity: 1;" transform=" translate(-635.2124, -95.9198)" d="M 637.1517 98.92488 c -3.862 2.57319 -7.8147 -3.55124 -3.87848 -6.01018 C 637.135 90.34165 641.08773 96.46609 637.1517 98.92488 Z" stroke-linecap="round"/>
</g>
		<g transform="matrix(1 0 0 1 -154.7876 -236.0802)">
<path style="stroke: none; stroke-width: 1; stroke-dasharray: none; stroke-linecap: butt; stroke-dashoffset: 0; stroke-linejoin: miter; stroke-miterlimit: 4; is-custom-font: none; font-file-url: none; fill: rgb(230,230,230); fill-rule: nonzero; opacity: 1;" transform=" translate(-445.2124, -213.9198)" d="M 447.1517 216.92488 c -3.862 2.57319 -7.8147 -3.55124 -3.87848 -6.01018 C 447.135 208.34165 451.08773 214.46609 447.1517 216.92488 Z" stroke-linecap="round"/>
</g>
		<g transform="matrix(1 0 0 1 116.9737 -266.8029)">
<polygon style="stroke: none; stroke-width: 1; stroke-dasharray: none; stroke-linecap: butt; stroke-dashoffset: 0; stroke-linejoin: miter; stroke-miterlimit: 4; is-custom-font: none; font-file-url: none; fill: rgb(230,230,230); fill-rule: nonzero; opacity: 1;" points="3.456,-0.1005 0.999,-0.6395 1.537,-3.0975 -0.101,-3.4565 -0.64,-0.9985 -3.097,-1.5365 -3.456,0.1015 -0.999,0.6405 -1.537,3.0975 0.101,3.4565 0.64,0.9985 3.097,1.5375 3.456,-0.1005 "/>
</g>
		<g transform="matrix(1 0 0 1 -283.1238 -62.0244)">
<polygon style="stroke: none; stroke-width: 1; stroke-dasharray: none; stroke-linecap: butt; stroke-dashoffset: 0; stroke-linejoin: miter; stroke-miterlimit: 4; is-custom-font: none; font-file-url: none; fill: rgb(230,230,230); fill-rule: nonzero; opacity: 1;" points="3.4565,-0.101 0.9995,-0.64 1.5375,-3.097 -0.1005,-3.456 -0.6395,-0.999 -3.0975,-1.537 -3.4565,0.101 -0.9985,0.64 -1.5365,3.098 0.1015,3.456 0.6405,0.999 3.0975,1.537 3.4565,-0.101 "/>
</g>
		<g transform="matrix(1 0 0 1 215.5828 23.7447)">
<path style="stroke: none; stroke-width: 1; stroke-dasharray: none; stroke-linecap: butt; stroke-dashoffset: 0; stroke-linejoin: miter; stroke-miterlimit: 4; is-custom-font: none; font-file-url: none; fill: rgb(63,61,86); fill-rule: nonzero; opacity: 1;" transform=" translate(-815.5828, -473.7447)" d="M 824.22 492.33287 a 8.50983 8.50983 0 0 1 -11.29014 -4.12709 l -10.11253 -21.7655 a 8.5 8.5 0 0 1 15.41723 -7.163 l 10.11253 21.76549 A 8.50983 8.50983 0 0 1 824.22 492.33287 Z" stroke-linecap="round"/>
</g>
		<g transform="matrix(1 0 0 1 43.5828 103.7447)">
<path style="stroke: none; stroke-width: 1; stroke-dasharray: none; stroke-linecap: butt; stroke-dashoffset: 0; stroke-linejoin: miter; stroke-miterlimit: 4; is-custom-font: none; font-file-url: none; fill: rgb(63,61,86); fill-rule: nonzero; opacity: 1;" transform=" translate(-643.5828, -553.7447)" d="M 652.22 572.33287 a 8.50983 8.50983 0 0 1 -11.29014 -4.12709 l -10.11253 -21.7655 a 8.5 8.5 0 0 1 15.41723 -7.163 l 10.11253 21.76549 A 8.50983 8.50983 0 0 1 652.22 572.33287 Z" stroke-linecap="round"/>
</g>
		<g transform="matrix(1 0 0 1 167.323 -15.0335)">
<path style="stroke: none; stroke-width: 1; stroke-dasharray: none; stroke-linecap: butt; stroke-dashoffset: 0; stroke-linejoin: miter; stroke-miterlimit: 4; is-custom-font: none; font-file-url: none; fill: rgb(230,230,230); fill-rule: nonzero; opacity: 1;" transform=" translate(-767.323, -434.9666)" d="M 808.64176 444.7781 l -67.80585 31.50349 c -4.317 -6.71611 -17.33058 -41.13265 -14.40852 -51.34393 l 1.43426 -11.42307 l 40.48614 -19.86306 l 8.9714 7.505 C 789.95914 396.88314 808.53922 428.20455 808.64176 444.7781 Z" stroke-linecap="round"/>
</g>
		<g transform="matrix(1 0 0 1 163.3681 -14.6585)">
<path style="stroke: none; stroke-width: 1; stroke-dasharray: none; stroke-linecap: butt; stroke-dashoffset: 0; stroke-linejoin: miter; stroke-miterlimit: 4; is-custom-font: none; font-file-url: none; fill: rgb(63,61,86); fill-rule: nonzero; opacity: 1;" transform=" translate(-763.3681, -435.3415)" d="M 777.16178 442.59376 l -17.14693 7.96671 c -3.30882 1.53733 -8.34353 -2.25264 -11.22164 -8.44728 s -2.52761 -12.48665 0.78121 -14.024 l 17.14693 -7.96671 c 3.30882 -1.53732 8.34353 2.25264 11.22164 8.44728 S 780.4706 441.05644 777.16178 442.59376 Z" stroke-linecap="round"/>
</g>
		<g transform="matrix(1 0 0 1 77.6972 130.4836)">
<polyline style="stroke: none; stroke-width: 1; stroke-dasharray: none; stroke-linecap: butt; stroke-dashoffset: 0; stroke-linejoin: miter; stroke-miterlimit: 4; is-custom-font: none; font-file-url: none; fill: rgb(63,61,86); fill-rule: nonzero; opacity: 1;" points="-45.9555,-96.896 -52.5165,-111.333 -48.7395,-113.075 -42.1985,-98.684 52.5165,111.322 48.7435,113.075 "/>
</g>
		<g transform="matrix(1 0 0 1 53.6259 36.1699)">
<path style="stroke: none; stroke-width: 1; stroke-dasharray: none; stroke-linecap: butt; stroke-dashoffset: 0; stroke-linejoin: miter; stroke-miterlimit: 4; is-custom-font: none; font-file-url: none; fill: rgb(230,230,230); fill-rule: nonzero; opacity: 1;" transform=" translate(-653.6259, -486.1699)" d="M 696.60745 495.98143 l -67.8059 31.50349 c -10.00311 -5.16492 -25.29108 -38.961 -14.40851 -51.34394 l 1.43428 -11.42306 l 40.48614 -19.86306 l 8.9714 7.505 C 674.58727 455.214 692.6967 487.54053 696.60745 495.98143 Z" stroke-linecap="round"/>
</g>
		<g transform="matrix(1 0 0 1 50.636 35.043)">
<path style="stroke: none; stroke-width: 1; stroke-dasharray: none; stroke-linecap: butt; stroke-dashoffset: 0; stroke-linejoin: miter; stroke-miterlimit: 4; is-custom-font: none; font-file-url: none; fill: rgb(63,61,86); fill-rule: nonzero; opacity: 1;" transform=" translate(-650.636, -485.043)" d="M 663.73193 490.79348 l -17.14693 7.9667 c -3.30882 1.53733 -8.03047 -1.57883 -10.52388 -6.94547 s -1.82985 -10.98484 1.479 -12.52216 l 17.14693 -7.96671 c 3.30882 -1.53732 8.03047 1.57884 10.52388 6.94547 S 667.04075 489.25615 663.73193 490.79348 Z" stroke-linecap="round"/>
</g>
		<g transform="matrix(1 0 0 1 -279.9178 -208.2585)">
<circle style="stroke: none; stroke-width: 1; stroke-dasharray: none; stroke-linecap: butt; stroke-dashoffset: 0; stroke-linejoin: miter; stroke-miterlimit: 4; is-custom-font: none; font-file-url: none; fill: rgb(255,101,132); fill-rule: nonzero; opacity: 1;" cx="0" cy="0" r="103"/>
</g>
		<g transform="matrix(1 0 0 1 170.2513 -190.6881)">
<path style="stroke: none; stroke-width: 1; stroke-dasharray: none; stroke-linecap: butt; stroke-dashoffset: 0; stroke-linejoin: miter; stroke-miterlimit: 4; is-custom-font: none; font-file-url: none; fill: rgb(240,240,240); fill-rule: nonzero; opacity: 0.3;" transform=" translate(-770.2514, -259.3119)" d="M 742.39622 349.02053 l 62.59321 -182.809 L 736.2582 346.83222 a 3.44161 3.44161 0 1 0 6.138 2.18831 Z" stroke-linecap="round"/>
</g>
		<g transform="matrix(1 0 0 1 -35.8755 -225.175)">
<path style="stroke: none; stroke-width: 1; stroke-dasharray: none; stroke-linecap: butt; stroke-dashoffset: 0; stroke-linejoin: miter; stroke-miterlimit: 4; is-custom-font: none; font-file-url: none; fill: rgb(63,61,86); fill-rule: nonzero; opacity: 1;" transform=" translate(-564.1245, -224.825)" d="M 901.95012 240.05454 q -18.37971 6.10836 -40.75145 12.00083 c -77.14515 20.311 -180.54976 36.15428 -291.16558 44.61271 c -110.61535 8.45828 -215.22739 8.51948 -294.5635 0.17426 c -38.6472 -4.06578 -69.21495 -9.91317 -90.85368 -17.381 c -22.90943 -7.9053 -34.94724 -17.43191 -35.77952 -28.31364 c -1.62074 -21.19968 40.21258 -39.85854 75.59194 -51.77816 l 0.95819 2.84289 C 176.80129 218.58114 150.6779 235.879 151.8281 250.9191 c 1.4643 19.15595 46.64436 34.80631 123.95529 42.93958 c 79.16179 8.327 183.58052 8.26316 294.02138 -0.18138 c 110.44009 -8.44531 213.6549 -24.25739 290.63031 -44.52332 c 75.17352 -19.79057 117.45048 -42.12921 115.98557 -61.28547 c -1.21629 -15.90466 -32.56722 -29.51036 -88.2777 -38.3124 l 0.46834 -2.963 c 40.48 6.39573 89.09256 18.70823 90.80107 41.04675 c 0.83181 10.88188 -9.61776 22.12737 -31.05892 33.424 C 936.13107 227.5031 920.60136 233.856 901.95012 240.05454 Z" stroke-linecap="round"/>
</g>
		<g transform="matrix(1 0 0 1 332.216 -37.9672)">
<circle style="stroke: none; stroke-width: 1; stroke-dasharray: none; stroke-linecap: butt; stroke-dashoffset: 0; stroke-linejoin: miter; stroke-miterlimit: 4; is-custom-font: none; font-file-url: none; fill: rgb(255,101,132); fill-rule: nonzero; opacity: 1;" cx="0" cy="0" r="10.70234"/>
</g>
		<g transform="matrix(1 0 0 1 400.216 252.0328)">
<circle style="stroke: none; stroke-width: 1; stroke-dasharray: none; stroke-linecap: butt; stroke-dashoffset: 0; stroke-linejoin: miter; stroke-miterlimit: 4; is-custom-font: none; font-file-url: none; fill: rgb(242,242,242); fill-rule: nonzero; opacity: 1;" cx="0" cy="0" r="10.70234"/>
</g>
		<g transform="matrix(1 0 0 1 35.216 307.0328)">
<circle style="stroke: none; stroke-width: 1; stroke-dasharray: none; stroke-linecap: butt; stroke-dashoffset: 0; stroke-linejoin: miter; stroke-miterlimit: 4; is-custom-font: none; font-file-url: none; fill: rgb(242,242,242); fill-rule: nonzero; opacity: 1;" cx="0" cy="0" r="20.86614"/>
</g>
		<g transform="matrix(1 0 0 1 -123.784 41.0328)">
<circle style="stroke: none; stroke-width: 1; stroke-dasharray: none; stroke-linecap: butt; stroke-dashoffset: 0; stroke-linejoin: miter; stroke-miterlimit: 4; is-custom-font: none; font-file-url: none; fill: rgb(63,61,86); fill-rule: nonzero; opacity: 1;" cx="0" cy="0" r="10.70234"/>
</g>
		<g transform="matrix(1 0 0 1 273.2652 100.3941)">
<polygon style="stroke: none; stroke-width: 1; stroke-dasharray: none; stroke-linecap: butt; stroke-dashoffset: 0; stroke-linejoin: miter; stroke-miterlimit: 4; is-custom-font: none; font-file-url: none; fill: rgb(230,230,230); fill-rule: nonzero; opacity: 1;" points="-37.2485,-34.7295 8.9275,-22.7765 37.2485,32.8515 -10.6315,34.7295 -37.2485,-34.7295 "/>
</g>
		<g transform="matrix(1 0 0 1 174.4162 73.0956)">
<polygon style="stroke: none; stroke-width: 1; stroke-dasharray: none; stroke-linecap: butt; stroke-dashoffset: 0; stroke-linejoin: miter; stroke-miterlimit: 4; is-custom-font: none; font-file-url: none; fill: rgb(204,204,204); fill-rule: nonzero; opacity: 1;" points="-44.9805,-87.625 -19.5665,-62.197 44.9805,77.358 33.0965,87.625 -44.9805,-87.625 "/>
</g>
		<g transform="matrix(1 0 0 1 113.4237 97.0556)">
<polygon style="stroke: none; stroke-width: 1; stroke-dasharray: none; stroke-linecap: butt; stroke-dashoffset: 0; stroke-linejoin: miter; stroke-miterlimit: 4; is-custom-font: none; font-file-url: none; fill: rgb(204,204,204); fill-rule: nonzero; opacity: 1;" points="-39.247,-88.535 -37.253,-52.639 23.671,88.535 39.247,86.529 -39.247,-88.535 "/>
</g>
		<g transform="matrix(1 0 0 1 74.6677 203.7191)">
<polygon style="stroke: none; stroke-width: 1; stroke-dasharray: none; stroke-linecap: butt; stroke-dashoffset: 0; stroke-linejoin: miter; stroke-miterlimit: 4; is-custom-font: none; font-file-url: none; fill: rgb(230,230,230); fill-rule: nonzero; opacity: 1;" points="-2.154,-50.1855 -27.023,-9.4835 -8.69,50.1855 27.023,18.2385 -2.154,-50.1855 "/>
</g>
		<g transform="matrix(1 0 0 1 -21.8736 52.4006)">
<path style="stroke: none; stroke-width: 1; stroke-dasharray: none; stroke-linecap: butt; stroke-dashoffset: 0; stroke-linejoin: miter; stroke-miterlimit: 4; is-custom-font: none; font-file-url: none; fill: rgb(63,61,86); fill-rule: nonzero; opacity: 1;" transform=" translate(-578.1263, -502.4006)" d="M 892.19547 628.54368 q -19.36816 0 -42.45654 -1.46387 c -79.61377 -5.05566 -182.7378 -22.63281 -290.376 -49.49219 c -107.63769 -26.85937 -206.93017 -59.79394 -279.58545 -92.73437 c -35.39258 -16.04688 -62.55615 -31.23633 -80.73535 -45.14746 c -19.24707 -14.727 -27.666 -27.564 -25.02393 -38.15283 c 5.14795 -20.62891 50.731 -25.14209 88.064 -25.29541 l 0.01269 3 c -51.26806 0.21044 -81.51367 8.38671 -85.16552 23.022 c -4.65186 18.64013 33.28662 47.74072 104.08691 79.84131 c 72.49561 32.86816 171.60547 65.73925 279.07324 92.55664 c 107.46729 26.8164 210.40137 44.36328 289.83985 49.4082 c 77.57861 4.92773 124.74316 -2.9375 129.39453 -21.57812 c 3.86181 -15.47657 -21.59815 -38.2754 -71.68945 -64.19825 l 1.3789 -2.66406 c 36.397 18.83594 78.64551 45.85156 73.22168 67.58887 C 979.59244 613.823 966.12955 621.199 942.21988 625.157 C 928.59049 627.41282 911.84977 628.54368 892.19547 628.54368 Z" stroke-linecap="round"/>
</g>
</g>
</g>
</svg>